<svg xmlns="http://www.w3.org/2000/svg" version="1.1" xmlns:xlink="http://www.w3.org/1999/xlink" xmlns:svgjs="http://svgjs.dev/svgjs" width="2000" height="1252" viewBox="0 0 2000 1252"><g transform="matrix(1,0,0,1,-1.2121212121212466,-2.01935483870966)"><svg viewBox="0 0 396 248" data-background-color="#7a26c1" preserveAspectRatio="xMidYMid meet" height="1252" width="2000" xmlns="http://www.w3.org/2000/svg" xmlns:xlink="http://www.w3.org/1999/xlink"><g id="tight-bounds" transform="matrix(1,0,0,1,0.2400000000000091,0.4000000000000057)"><svg viewBox="0 0 395.52 247.2" height="247.2" width="395.52"><g><svg></svg></g><g><svg viewBox="0 0 395.52 247.2" height="247.2" width="395.52"><mask id="c8a8d31a-77eb-45b7-a6f1-806e2471fd7f"><rect width="395.52" height="247.2" fill="white"></rect><g transform="matrix(1,0,0,1,0,75.37053712262806)" id="clone"><svg viewBox="0 0 395.52 96.45892575474386" height="96.45892575474386" width="395.52"><g><svg viewBox="0 0 395.52 96.45892575474386" height="96.45892575474386" width="395.52"><g><svg viewBox="0 0 395.52 96.45892575474386" height="96.45892575474386" width="395.52"><g><svg viewBox="0 0 395.52 96.45892575474386" height="96.45892575474386" width="395.52"><g id="SvgjsG1377"><svg viewBox="0 0 395.52 96.45892575474386" height="96.45892575474386" width="395.52" id="SvgjsSvg1376"><g><svg viewBox="0 0 395.52 70.12883399623193" height="70.12883399623193" width="395.52"><g transform="matrix(1,0,0,1,0,0)"><svg width="395.52" viewBox="-0.5 -39.75 239.83 43.35" height="70.12883399623193" data-palette-color="#ffffff"><path d="M17.95 0.6L17.95 0.6Q13.4 0.6 9.9-1.58 6.4-3.75 4.45-7.78 2.5-11.8 2.5-17.35L2.5-17.35Q2.5-22.7 4.48-26.83 6.45-30.95 10.08-33.27 13.7-35.6 18.55-35.6L18.55-35.6Q21.05-35.6 23.1-35.13 25.15-34.65 26.95-33.8L26.95-33.8 25.5-29.8Q23.95-30.55 22.33-31 20.7-31.45 18.5-31.45L18.5-31.45Q15.3-31.45 12.78-29.8 10.25-28.15 8.8-25.05 7.35-21.95 7.35-17.55L7.35-17.55Q7.35-13.35 8.78-10.2 10.2-7.05 12.73-5.3 15.25-3.55 18.5-3.55L18.5-3.55Q20.95-3.55 22.75-4.15 24.55-4.75 26.25-5.7L26.25-5.7 27.7-1.75Q25.85-0.75 23.48-0.08 21.1 0.6 17.95 0.6ZM43.15 0.6L43.15 0.6Q39.45 0.6 36.5-1.13 33.55-2.85 31.87-5.93 30.2-9 30.2-13L30.2-13Q30.2-17.2 31.9-20.25 33.6-23.3 36.55-24.95 39.5-26.6 43.15-26.6L43.15-26.6Q46.8-26.6 49.72-24.95 52.65-23.3 54.37-20.28 56.1-17.25 56.1-13.1L56.1-13.1Q56.1-8.95 54.4-5.88 52.7-2.8 49.77-1.1 46.85 0.6 43.15 0.6ZM43.15-3.4L43.15-3.4Q47.1-3.4 49.3-6.08 51.5-8.75 51.5-13L51.5-13Q51.5-15.6 50.4-17.78 49.3-19.95 47.42-21.28 45.55-22.6 43.15-22.6L43.15-22.6Q39.2-22.6 37-20 34.8-17.4 34.8-13.1L34.8-13.1Q34.8-10.5 35.9-8.28 37-6.05 38.87-4.73 40.75-3.4 43.15-3.4ZM66.59 0L62.1 0 62.1-26 66.59-26 66.59 0ZM64.34-30.45L64.34-30.45Q63.05-30.45 62.12-31.4 61.2-32.35 61.2-33.6L61.2-33.6Q61.2-35.05 62.05-35.9 62.9-36.75 64.34-36.75L64.34-36.75Q65.65-36.75 66.57-35.83 67.5-34.9 67.5-33.6L67.5-33.6Q67.5-32.2 66.65-31.33 65.8-30.45 64.34-30.45ZM79.09 0L74.59 0 74.59-26 78.94-26 78.94-21.65Q80.34-23.75 82.52-25.18 84.69-26.6 87.69-26.6L87.69-26.6Q92.09-26.6 94.27-23.95 96.44-21.3 96.44-16.95L96.44-16.95 96.44 0 91.94 0 91.94-16.45Q91.94-19.25 90.62-20.95 89.29-22.65 86.94-22.65L86.94-22.65Q84.64-22.65 82.59-21.03 80.54-19.4 79.09-17.2L79.09-17.2 79.09 0ZM118.89 0L113.54 0 100.69-33.75 105.34-35.55 116.34-5.2 127.39-35.4 131.69-33.75 118.89 0ZM140.69 0L136.19 0 136.19-26 140.69-26 140.69 0ZM138.44-30.45L138.44-30.45Q137.14-30.45 136.21-31.4 135.29-32.35 135.29-33.6L135.29-33.6Q135.29-35.05 136.14-35.9 136.99-36.75 138.44-36.75L138.44-36.75Q139.74-36.75 140.66-35.83 141.59-34.9 141.59-33.6L141.59-33.6Q141.59-32.2 140.74-31.33 139.89-30.45 138.44-30.45ZM155.69 0.6L155.69 0.6Q152.74 0.6 150.36-0.15 147.99-0.9 146.44-2.1L146.44-2.1 148.34-5.85Q149.63-4.75 151.61-4.03 153.59-3.3 155.84-3.3L155.84-3.3Q158.63-3.3 160.06-4.23 161.49-5.15 161.49-6.6L161.49-6.6Q161.49-7.65 160.96-8.45 160.44-9.25 159.03-10.03 157.63-10.8 154.99-11.7L154.99-11.7Q151.34-12.95 149.51-14.68 147.69-16.4 147.69-19.45L147.69-19.45Q147.69-22.45 150.31-24.53 152.94-26.6 157.59-26.6L157.59-26.6Q160.09-26.6 162.03-26.08 163.99-25.55 165.53-24.75L165.53-24.75 164.28-21.05Q162.94-21.85 161.21-22.35 159.49-22.85 157.38-22.85L157.38-22.85Q154.78-22.85 153.44-21.8 152.09-20.75 152.09-19.5L152.09-19.5Q152.09-18.3 153.13-17.45 154.19-16.6 157.24-15.6L157.24-15.6Q162.19-13.95 164.13-11.95 166.09-9.95 166.09-6.95L166.09-6.95Q166.09-3.45 163.26-1.43 160.44 0.6 155.69 0.6ZM176.58 0L172.08 0 172.08-26 176.58-26 176.58 0ZM174.33-30.45L174.33-30.45Q173.03-30.45 172.11-31.4 171.18-32.35 171.18-33.6L171.18-33.6Q171.18-35.05 172.03-35.9 172.88-36.75 174.33-36.75L174.33-36.75Q175.63-36.75 176.56-35.83 177.48-34.9 177.48-33.6L177.48-33.6Q177.48-32.2 176.63-31.33 175.78-30.45 174.33-30.45ZM195.53 0.6L195.53 0.6Q191.83 0.6 188.88-1.13 185.93-2.85 184.26-5.93 182.58-9 182.58-13L182.58-13Q182.58-17.2 184.28-20.25 185.98-23.3 188.93-24.95 191.88-26.6 195.53-26.6L195.53-26.6Q199.18-26.6 202.11-24.95 205.03-23.3 206.76-20.28 208.48-17.25 208.48-13.1L208.48-13.1Q208.48-8.95 206.78-5.88 205.08-2.8 202.16-1.1 199.23 0.6 195.53 0.6ZM195.53-3.4L195.53-3.4Q199.48-3.4 201.68-6.08 203.88-8.75 203.88-13L203.88-13Q203.88-15.6 202.78-17.78 201.68-19.95 199.81-21.28 197.93-22.6 195.53-22.6L195.53-22.6Q191.58-22.6 189.38-20 187.18-17.4 187.18-13.1L187.18-13.1Q187.18-10.5 188.28-8.28 189.38-6.05 191.26-4.73 193.13-3.4 195.53-3.4ZM218.98 0L214.48 0 214.48-26 218.83-26 218.83-21.65Q220.23-23.75 222.4-25.18 224.58-26.6 227.58-26.6L227.58-26.6Q231.98-26.6 234.15-23.95 236.33-21.3 236.33-16.95L236.33-16.95 236.33 0 231.83 0 231.83-16.45Q231.83-19.25 230.5-20.95 229.18-22.65 226.83-22.65L226.83-22.65Q224.53-22.65 222.48-21.03 220.43-19.4 218.98-17.2L218.98-17.2 218.98 0Z" opacity="1" transform="matrix(1,0,0,1,0,0)" fill="black" class="wordmark-text-0" id="SvgjsPath1375" stroke-width="5" stroke="black" stroke-linejoin="round"></path></svg></g></svg></g><g transform="matrix(1,0,0,1,2.5,79.15411090193844)"><svg viewBox="0 0 390.52 17.304814852805414" height="17.304814852805414" width="390.52"><g transform="matrix(1,0,0,1,0,0)"><svg width="390.52" viewBox="-1.5 -40.6 975.8 44.2" height="17.304814852805414" data-palette-color="#ffffff"><path d="M13.2 0.6L13.2 0.6Q9.55 0.6 6.55-0.38 3.55-1.35 1.5-2.95L1.5-2.95 3.9-6.95Q5.7-5.45 7.95-4.5 10.2-3.55 13.2-3.55L13.2-3.55Q16.8-3.55 18.9-5.05 21-6.55 21-9.1L21-9.1Q21-10.55 20.4-11.68 19.8-12.8 18.07-13.88 16.35-14.95 13-16.2L13-16.2Q9.4-17.6 7.25-19.03 5.1-20.45 4.17-22.28 3.25-24.1 3.25-26.6L3.25-26.6Q3.25-29.1 4.63-31.13 6-33.15 8.68-34.38 11.35-35.6 15.15-35.6L15.15-35.6Q18.25-35.6 20.73-34.98 23.2-34.35 25.55-33.2L25.55-33.2 23.8-29.15Q22.1-30.15 19.83-30.83 17.55-31.5 15.05-31.5L15.05-31.5Q11.75-31.5 9.85-30.2 7.95-28.9 7.95-26.85L7.95-26.85Q7.95-25.55 8.5-24.55 9.05-23.55 10.68-22.6 12.3-21.65 15.55-20.45L15.55-20.45Q19.45-19 21.73-17.4 24-15.8 24.95-13.93 25.9-12.05 25.9-9.65L25.9-9.65Q25.9-6.4 24.28-4.1 22.65-1.8 19.78-0.6 16.9 0.6 13.2 0.6ZM36.9 0L32.4 0 32.4-26 36.75-26 36.75-21.65Q38.15-23.75 40.3-25.18 42.45-26.6 45.2-26.6L45.2-26.6Q48.3-26.6 50.27-25.1 52.25-23.6 53.05-21.1L53.05-21.1Q54.6-23.4 56.72-25 58.85-26.6 62-26.6L62-26.6Q66.25-26.6 68.32-23.93 70.4-21.25 70.4-16.95L70.4-16.95 70.4 0 65.9 0 65.9-16.6Q65.9-19.3 64.65-20.98 63.4-22.65 61.2-22.65L61.2-22.65Q58.95-22.65 57.02-20.98 55.1-19.3 53.65-17.05L53.65-17.05 53.65 0 49.15 0 49.15-16.6Q49.15-19.3 47.9-20.98 46.65-22.65 44.45-22.65L44.45-22.65Q42.25-22.65 40.3-21.03 38.35-19.4 36.9-17.2L36.9-17.2 36.9 0ZM88.1 0.6L88.1 0.6Q84.85 0.6 82.2-1.05 79.55-2.7 77.97-5.73 76.4-8.75 76.4-12.85L76.4-12.85Q76.4-16.75 77.97-19.85 79.55-22.95 82.32-24.78 85.1-26.6 88.7-26.6L88.7-26.6Q90.95-26.6 92.77-25.83 94.6-25.05 95.95-23.9L95.95-23.9 95.95-26 100.05-26 100.05-6.3Q100.05-4.4 100.97-3.83 101.9-3.25 103-3.25L103-3.25 102.05 0.25Q97.25 0.25 96.25-3.65L96.25-3.65Q95.1-2.05 93.12-0.73 91.15 0.6 88.1 0.6ZM89.1-3.4L89.1-3.4Q91-3.4 92.7-4.33 94.4-5.25 95.55-6.65L95.55-6.65 95.55-20.6Q94.2-21.55 92.57-22.13 90.95-22.7 89.15-22.7L89.15-22.7Q86.75-22.7 84.92-21.48 83.1-20.25 82.05-18.07 81-15.9 81-13L81-13Q81-10.2 82.05-8.03 83.1-5.85 84.95-4.63 86.8-3.4 89.1-3.4ZM113.49 0L108.99 0 108.99-26 113.34-26 113.34-20.35Q113.99-22 115.09-23.43 116.19-24.85 117.84-25.73 119.49-26.6 121.69-26.6L121.69-26.6Q122.44-26.6 123.19-26.53 123.94-26.45 124.44-26.3L124.44-26.3 123.09-21.65Q122.14-22.05 120.84-22.05L120.84-22.05Q118.99-22.05 117.32-21 115.64-19.95 114.57-17.75 113.49-15.55 113.49-12.15L113.49-12.15 113.49 0ZM139.04 0.6L139.04 0.6Q135.29 0.6 133.12-1.88 130.94-4.35 130.94-8.95L130.94-8.95 130.94-21.15 126.44-21.15 126.44-25.05 131.04-25.05 131.99-33.25 135.44-33.25 135.44-25.05 142.64-25.05 142.64-21.15 135.44-21.15 135.44-8.6Q135.44-5.7 136.67-4.55 137.89-3.4 139.59-3.4L139.59-3.4Q140.84-3.4 141.97-3.8 143.09-4.2 144.04-4.75L144.04-4.75 145.29-1.15Q144.29-0.55 142.59 0.03 140.89 0.6 139.04 0.6ZM170.04 0L165.29 0 165.29-34.9Q167.34-35.15 169.81-35.27 172.29-35.4 174.94-35.4L174.94-35.4Q179.29-35.4 182.34-34.02 185.39-32.65 186.99-30.25 188.59-27.85 188.59-24.75L188.59-24.75Q188.59-21 186.74-18.4 184.89-15.8 181.59-14.43 178.29-13.05 173.94-13.05L173.94-13.05Q171.84-13.05 170.04-13.2L170.04-13.2 170.04 0ZM174.54-17L174.54-17Q178.99-17 181.44-19 183.89-21 183.89-24.35L183.89-24.35Q183.89-27.6 181.54-29.5 179.19-31.4 174.84-31.4L174.84-31.4Q173.49-31.4 172.29-31.35 171.09-31.3 170.04-31.2L170.04-31.2 170.04-17.25Q170.84-17.15 171.99-17.07 173.14-17 174.54-17ZM198.33 0L193.83 0 193.83-26 198.18-26 198.18-20.35Q198.83-22 199.93-23.43 201.03-24.85 202.68-25.73 204.33-26.6 206.53-26.6L206.53-26.6Q207.28-26.6 208.03-26.53 208.78-26.45 209.28-26.3L209.28-26.3 207.93-21.65Q206.98-22.05 205.68-22.05L205.68-22.05Q203.83-22.05 202.16-21 200.48-19.95 199.41-17.75 198.33-15.55 198.33-12.15L198.33-12.15 198.33 0ZM222.68 0.6L222.68 0.6Q217.08 0.6 213.81-2.98 210.53-6.55 210.53-13L210.53-13Q210.53-16.9 212.01-19.98 213.48-23.05 216.13-24.83 218.78-26.6 222.28-26.6L222.28-26.6Q226.03-26.6 228.51-24.98 230.98-23.35 232.23-20.6 233.48-17.85 233.48-14.55L233.48-14.55Q233.48-12.8 233.33-11.15L233.33-11.15 215.13-11.15Q215.58-7.5 217.68-5.45 219.78-3.4 223.23-3.4L223.23-3.4Q225.48-3.4 227.28-3.88 229.08-4.35 230.73-5.1L230.73-5.1 231.78-1.25Q229.98-0.45 227.73 0.08 225.48 0.6 222.68 0.6ZM215.08-14.8L215.08-14.8 229.33-14.8Q229.33-18.6 227.43-20.65 225.53-22.7 222.18-22.7L222.18-22.7Q219.28-22.7 217.38-20.68 215.48-18.65 215.08-14.8ZM249.33 0.6L249.33 0.6Q246.13 0.6 243.48-1.05 240.83-2.7 239.28-5.73 237.73-8.75 237.73-12.85L237.73-12.85Q237.73-16.8 239.3-19.9 240.88-23 243.5-24.8 246.13-26.6 249.28-26.6L249.28-26.6Q251.88-26.6 253.75-25.55 255.63-24.5 256.68-23.4L256.68-23.4 256.68-37 261.18-37 261.18-6.3Q261.18-4.4 262.1-3.83 263.03-3.25 264.13-3.25L264.13-3.25 263.18 0.25Q258.43 0.25 257.38-3.55L257.38-3.55Q256.28-2 254.3-0.7 252.33 0.6 249.33 0.6ZM250.33-3.4L250.33-3.4Q252.18-3.4 253.85-4.28 255.53-5.15 256.68-6.55L256.68-6.55 256.68-19.45Q255.73-20.65 254.03-21.68 252.33-22.7 250.28-22.7L250.28-22.7Q247.88-22.7 246.08-21.4 244.28-20.1 243.3-17.93 242.33-15.75 242.33-13L242.33-13Q242.33-10.25 243.38-8.08 244.43-5.9 246.25-4.65 248.08-3.4 250.33-3.4ZM274.63 0L270.13 0 270.13-26 274.63-26 274.63 0ZM272.38-30.45L272.38-30.45Q271.07-30.45 270.15-31.4 269.23-32.35 269.23-33.6L269.23-33.6Q269.23-35.05 270.07-35.9 270.93-36.75 272.38-36.75L272.38-36.75Q273.68-36.75 274.6-35.83 275.52-34.9 275.52-33.6L275.52-33.6Q275.52-32.2 274.68-31.33 273.82-30.45 272.38-30.45ZM293.12 0.6L293.12 0.6Q289.42 0.6 286.65-1.13 283.87-2.85 282.37-5.93 280.87-9 280.87-13L280.87-13Q280.87-16.75 282.4-19.85 283.92-22.95 286.77-24.78 289.62-26.6 293.47-26.6L293.47-26.6Q295.67-26.6 297.35-26.2 299.02-25.8 300.57-25.05L300.57-25.05 299.22-21.25Q297.82-21.95 296.55-22.28 295.27-22.6 293.72-22.6L293.72-22.6Q290.22-22.6 287.85-20.08 285.47-17.55 285.47-13.1L285.47-13.1Q285.47-10.4 286.47-8.2 287.47-6 289.25-4.7 291.02-3.4 293.42-3.4L293.42-3.4Q295.32-3.4 296.67-3.83 298.02-4.25 299.57-5.05L299.57-5.05 300.97-1.25Q299.42-0.4 297.5 0.1 295.57 0.6 293.12 0.6ZM315.32 0.6L315.32 0.6Q311.57 0.6 309.4-1.88 307.22-4.35 307.22-8.95L307.22-8.95 307.22-21.15 302.72-21.15 302.72-25.05 307.32-25.05 308.27-33.25 311.72-33.25 311.72-25.05 318.92-25.05 318.92-21.15 311.72-21.15 311.72-8.6Q311.72-5.7 312.95-4.55 314.17-3.4 315.87-3.4L315.87-3.4Q317.12-3.4 318.25-3.8 319.37-4.2 320.32-4.75L320.32-4.75 321.57-1.15Q320.57-0.55 318.87 0.03 317.17 0.6 315.32 0.6ZM330.57 0L326.07 0 326.07-26 330.57-26 330.57 0ZM328.32-30.45L328.32-30.45Q327.02-30.45 326.09-31.4 325.17-32.35 325.17-33.6L325.17-33.6Q325.17-35.05 326.02-35.9 326.87-36.75 328.32-36.75L328.32-36.75Q329.62-36.75 330.54-35.83 331.47-34.9 331.47-33.6L331.47-33.6Q331.47-32.2 330.62-31.33 329.77-30.45 328.32-30.45ZM349.52 0.6L349.52 0.6Q345.82 0.6 342.87-1.13 339.92-2.85 338.24-5.93 336.57-9 336.57-13L336.57-13Q336.57-17.2 338.27-20.25 339.97-23.3 342.92-24.95 345.87-26.6 349.52-26.6L349.52-26.6Q353.17-26.6 356.09-24.95 359.02-23.3 360.74-20.28 362.47-17.25 362.47-13.1L362.47-13.1Q362.47-8.95 360.77-5.88 359.07-2.8 356.14-1.1 353.22 0.6 349.52 0.6ZM349.52-3.4L349.52-3.4Q353.47-3.4 355.67-6.08 357.87-8.75 357.87-13L357.87-13Q357.87-15.6 356.77-17.78 355.67-19.95 353.79-21.28 351.92-22.6 349.52-22.6L349.52-22.6Q345.57-22.6 343.37-20 341.17-17.4 341.17-13.1L341.17-13.1Q341.17-10.5 342.27-8.28 343.37-6.05 345.24-4.73 347.12-3.4 349.52-3.4ZM372.96 0L368.46 0 368.46-26 372.81-26 372.81-21.65Q374.21-23.75 376.39-25.18 378.56-26.6 381.56-26.6L381.56-26.6Q385.96-26.6 388.14-23.95 390.31-21.3 390.31-16.95L390.31-16.95 390.31 0 385.81 0 385.81-16.45Q385.81-19.25 384.49-20.95 383.16-22.65 380.81-22.65L380.81-22.65Q378.51-22.65 376.46-21.03 374.41-19.4 372.96-17.2L372.96-17.2 372.96 0ZM405.06 0.6L405.06 0.6Q402.11 0.6 399.74-0.15 397.36-0.9 395.81-2.1L395.81-2.1 397.71-5.85Q399.01-4.75 400.99-4.03 402.96-3.3 405.21-3.3L405.21-3.3Q408.01-3.3 409.44-4.23 410.86-5.15 410.86-6.6L410.86-6.6Q410.86-7.65 410.34-8.45 409.81-9.25 408.41-10.03 407.01-10.8 404.36-11.7L404.36-11.7Q400.71-12.95 398.89-14.68 397.06-16.4 397.06-19.45L397.06-19.45Q397.06-22.45 399.69-24.53 402.31-26.6 406.96-26.6L406.96-26.6Q409.46-26.6 411.41-26.08 413.36-25.55 414.91-24.75L414.91-24.75 413.66-21.05Q412.31-21.85 410.59-22.35 408.86-22.85 406.76-22.85L406.76-22.85Q404.16-22.85 402.81-21.8 401.46-20.75 401.46-19.5L401.46-19.5Q401.46-18.3 402.51-17.45 403.56-16.6 406.61-15.6L406.61-15.6Q411.56-13.95 413.51-11.95 415.46-9.95 415.46-6.95L415.46-6.95Q415.46-3.45 412.64-1.43 409.81 0.6 405.06 0.6ZM441.46 0L436.96 0 436.96-21.15 432.96-21.15 432.96-25.05 436.96-25.05 436.96-28.1Q436.96-32.5 439.41-35.05 441.86-37.6 445.81-37.6L445.81-37.6Q447.86-37.6 449.41-37.13 450.96-36.65 452.36-35.95L452.36-35.95 451.01-32.15Q449.96-32.7 448.76-33.15 447.56-33.6 446.11-33.6L446.11-33.6Q444.01-33.6 442.73-32.27 441.46-30.95 441.46-28.4L441.46-28.4 441.46-25.05 449.16-25.05 449.16-21.15 441.46-21.15 441.46 0ZM464.05 0.6L464.05 0.6Q460.35 0.6 457.4-1.13 454.45-2.85 452.78-5.93 451.1-9 451.1-13L451.1-13Q451.1-17.2 452.8-20.25 454.5-23.3 457.45-24.95 460.4-26.6 464.05-26.6L464.05-26.6Q467.7-26.6 470.63-24.95 473.55-23.3 475.28-20.28 477-17.25 477-13.1L477-13.1Q477-8.95 475.3-5.88 473.6-2.8 470.68-1.1 467.75 0.6 464.05 0.6ZM464.05-3.4L464.05-3.4Q468-3.4 470.2-6.08 472.4-8.75 472.4-13L472.4-13Q472.4-15.6 471.3-17.78 470.2-19.95 468.33-21.28 466.45-22.6 464.05-22.6L464.05-22.6Q460.1-22.6 457.9-20 455.7-17.4 455.7-13.1L455.7-13.1Q455.7-10.5 456.8-8.28 457.9-6.05 459.78-4.73 461.65-3.4 464.05-3.4ZM487.5 0L483 0 483-26 487.35-26 487.35-20.35Q488-22 489.1-23.43 490.2-24.85 491.85-25.73 493.5-26.6 495.7-26.6L495.7-26.6Q496.45-26.6 497.2-26.53 497.95-26.45 498.45-26.3L498.45-26.3 497.1-21.65Q496.15-22.05 494.85-22.05L494.85-22.05Q493-22.05 491.32-21 489.65-19.95 488.57-17.75 487.5-15.55 487.5-12.15L487.5-12.15 487.5 0ZM527.14 0.6L527.14 0.6Q523.49 0.6 520.49-0.38 517.49-1.35 515.44-2.95L515.44-2.95 517.84-6.95Q519.64-5.45 521.89-4.5 524.14-3.55 527.14-3.55L527.14-3.55Q530.74-3.55 532.84-5.05 534.94-6.55 534.94-9.1L534.94-9.1Q534.94-10.55 534.34-11.68 533.74-12.8 532.02-13.88 530.29-14.95 526.94-16.2L526.94-16.2Q523.34-17.6 521.19-19.03 519.04-20.45 518.12-22.28 517.19-24.1 517.19-26.6L517.19-26.6Q517.19-29.1 518.57-31.13 519.94-33.15 522.62-34.38 525.29-35.6 529.09-35.6L529.09-35.6Q532.19-35.6 534.67-34.98 537.14-34.35 539.49-33.2L539.49-33.2 537.74-29.15Q536.04-30.15 533.77-30.83 531.49-31.5 528.99-31.5L528.99-31.5Q525.69-31.5 523.79-30.2 521.89-28.9 521.89-26.85L521.89-26.85Q521.89-25.55 522.44-24.55 522.99-23.55 524.62-22.6 526.24-21.65 529.49-20.45L529.49-20.45Q533.39-19 535.67-17.4 537.94-15.8 538.89-13.93 539.84-12.05 539.84-9.65L539.84-9.65Q539.84-6.4 538.22-4.1 536.59-1.8 533.72-0.6 530.84 0.6 527.14 0.6ZM550.84 0L546.34 0 546.34-26 550.69-26 550.69-21.65Q552.09-23.75 554.24-25.18 556.39-26.6 559.14-26.6L559.14-26.6Q562.24-26.6 564.22-25.1 566.19-23.6 566.99-21.1L566.99-21.1Q568.54-23.4 570.67-25 572.79-26.6 575.94-26.6L575.94-26.6Q580.19-26.6 582.27-23.93 584.34-21.25 584.34-16.95L584.34-16.95 584.34 0 579.84 0 579.84-16.6Q579.84-19.3 578.59-20.98 577.34-22.65 575.14-22.65L575.14-22.65Q572.89-22.65 570.97-20.98 569.04-19.3 567.59-17.05L567.59-17.05 567.59 0 563.09 0 563.09-16.6Q563.09-19.3 561.84-20.98 560.59-22.65 558.39-22.65L558.39-22.65Q556.19-22.65 554.24-21.03 552.29-19.4 550.84-17.2L550.84-17.2 550.84 0ZM602.04 0.6L602.04 0.6Q598.79 0.6 596.14-1.05 593.49-2.7 591.91-5.73 590.34-8.75 590.34-12.85L590.34-12.85Q590.34-16.75 591.91-19.85 593.49-22.95 596.26-24.78 599.04-26.6 602.64-26.6L602.64-26.6Q604.89-26.6 606.71-25.83 608.54-25.05 609.89-23.9L609.89-23.9 609.89-26 613.99-26 613.99-6.3Q613.99-4.4 614.91-3.83 615.84-3.25 616.94-3.25L616.94-3.25 615.99 0.25Q611.19 0.25 610.19-3.65L610.19-3.65Q609.04-2.05 607.06-0.73 605.09 0.6 602.04 0.6ZM603.04-3.4L603.04-3.4Q604.94-3.4 606.64-4.33 608.34-5.25 609.49-6.65L609.49-6.65 609.49-20.6Q608.14-21.55 606.51-22.13 604.89-22.7 603.09-22.7L603.09-22.7Q600.69-22.7 598.86-21.48 597.04-20.25 595.99-18.07 594.94-15.9 594.94-13L594.94-13Q594.94-10.2 595.99-8.03 597.04-5.85 598.89-4.63 600.74-3.4 603.04-3.4ZM627.44 0L622.94 0 622.94-26 627.29-26 627.29-20.35Q627.94-22 629.04-23.43 630.14-24.85 631.79-25.73 633.44-26.6 635.64-26.6L635.64-26.6Q636.39-26.6 637.14-26.53 637.89-26.45 638.39-26.3L638.39-26.3 637.04-21.65Q636.09-22.05 634.79-22.05L634.79-22.05Q632.94-22.05 631.26-21 629.59-19.95 628.51-17.75 627.44-15.55 627.44-12.15L627.44-12.15 627.44 0ZM652.98 0.6L652.98 0.6Q649.23 0.6 647.06-1.88 644.88-4.35 644.88-8.95L644.88-8.95 644.88-21.15 640.38-21.15 640.38-25.05 644.98-25.05 645.93-33.25 649.38-33.25 649.38-25.05 656.58-25.05 656.58-21.15 649.38-21.15 649.38-8.6Q649.38-5.7 650.61-4.55 651.83-3.4 653.53-3.4L653.53-3.4Q654.78-3.4 655.91-3.8 657.03-4.2 657.98-4.75L657.98-4.75 659.23-1.15Q658.23-0.55 656.53 0.03 654.83 0.6 652.98 0.6ZM683.98 0L679.23 0 679.23-35 683.98-35 683.98 0ZM696.98 0L692.48 0 692.48-26 696.83-26 696.83-21.65Q698.23-23.75 700.4-25.18 702.58-26.6 705.58-26.6L705.58-26.6Q709.98-26.6 712.15-23.95 714.33-21.3 714.33-16.95L714.33-16.95 714.33 0 709.83 0 709.83-16.45Q709.83-19.25 708.5-20.95 707.18-22.65 704.83-22.65L704.83-22.65Q702.53-22.65 700.48-21.03 698.43-19.4 696.98-17.2L696.98-17.2 696.98 0ZM733.72 0L729.02 0 718.57-24.8 722.67-26.5 731.52-5.1 740.37-26.5 744.22-24.8 733.72 0ZM758.12 0.6L758.12 0.6Q752.52 0.6 749.25-2.98 745.97-6.55 745.97-13L745.97-13Q745.97-16.9 747.45-19.98 748.92-23.05 751.57-24.83 754.22-26.6 757.72-26.6L757.72-26.6Q761.47-26.6 763.95-24.98 766.42-23.35 767.67-20.6 768.92-17.85 768.92-14.55L768.92-14.55Q768.92-12.8 768.77-11.15L768.77-11.15 750.57-11.15Q751.02-7.5 753.12-5.45 755.22-3.4 758.67-3.4L758.67-3.4Q760.92-3.4 762.72-3.88 764.52-4.35 766.17-5.1L766.17-5.1 767.22-1.25Q765.42-0.45 763.17 0.08 760.92 0.6 758.12 0.6ZM750.52-14.8L750.52-14.8 764.77-14.8Q764.77-18.6 762.87-20.65 760.97-22.7 757.62-22.7L757.62-22.7Q754.72-22.7 752.82-20.68 750.92-18.65 750.52-14.8ZM781.92 0.6L781.92 0.6Q778.97 0.6 776.59-0.15 774.22-0.9 772.67-2.1L772.67-2.1 774.57-5.85Q775.87-4.75 777.84-4.03 779.82-3.3 782.07-3.3L782.07-3.3Q784.87-3.3 786.29-4.23 787.72-5.15 787.72-6.6L787.72-6.6Q787.72-7.65 787.19-8.45 786.67-9.25 785.27-10.03 783.87-10.8 781.22-11.7L781.22-11.7Q777.57-12.95 775.74-14.68 773.92-16.4 773.92-19.45L773.92-19.45Q773.92-22.45 776.54-24.53 779.17-26.6 783.82-26.6L783.82-26.6Q786.32-26.6 788.27-26.08 790.22-25.55 791.77-24.75L791.77-24.75 790.52-21.05Q789.17-21.85 787.44-22.35 785.72-22.85 783.62-22.85L783.62-22.85Q781.02-22.85 779.67-21.8 778.32-20.75 778.32-19.5L778.32-19.5Q778.32-18.3 779.37-17.45 780.42-16.6 783.47-15.6L783.47-15.6Q788.42-13.95 790.37-11.95 792.32-9.95 792.32-6.95L792.32-6.95Q792.32-3.45 789.49-1.43 786.67 0.6 781.92 0.6ZM807.42 0.6L807.42 0.6Q803.67 0.6 801.49-1.88 799.32-4.35 799.32-8.95L799.32-8.95 799.32-21.15 794.82-21.15 794.82-25.05 799.42-25.05 800.37-33.25 803.82-33.25 803.82-25.05 811.02-25.05 811.02-21.15 803.82-21.15 803.82-8.6Q803.82-5.7 805.04-4.55 806.27-3.4 807.97-3.4L807.97-3.4Q809.22-3.4 810.34-3.8 811.47-4.2 812.42-4.75L812.42-4.75 813.67-1.15Q812.67-0.55 810.97 0.03 809.27 0.6 807.42 0.6ZM822.66 0L818.16 0 818.16-26 822.51-26 822.51-21.65Q823.91-23.75 826.06-25.18 828.21-26.6 830.96-26.6L830.96-26.6Q834.06-26.6 836.04-25.1 838.01-23.6 838.81-21.1L838.81-21.1Q840.36-23.4 842.49-25 844.61-26.6 847.76-26.6L847.76-26.6Q852.01-26.6 854.09-23.93 856.16-21.25 856.16-16.95L856.16-16.95 856.16 0 851.66 0 851.66-16.6Q851.66-19.3 850.41-20.98 849.16-22.65 846.96-22.65L846.96-22.65Q844.71-22.65 842.79-20.98 840.86-19.3 839.41-17.05L839.41-17.05 839.41 0 834.91 0 834.91-16.6Q834.91-19.3 833.66-20.98 832.41-22.65 830.21-22.65L830.21-22.65Q828.01-22.65 826.06-21.03 824.11-19.4 822.66-17.2L822.66-17.2 822.66 0ZM874.31 0.6L874.31 0.6Q868.71 0.6 865.44-2.98 862.16-6.55 862.16-13L862.16-13Q862.16-16.9 863.64-19.98 865.11-23.05 867.76-24.83 870.41-26.6 873.91-26.6L873.91-26.6Q877.66-26.6 880.14-24.98 882.61-23.35 883.86-20.6 885.11-17.85 885.11-14.55L885.11-14.55Q885.11-12.8 884.96-11.15L884.96-11.15 866.76-11.15Q867.21-7.5 869.31-5.45 871.41-3.4 874.86-3.4L874.86-3.4Q877.11-3.4 878.91-3.88 880.71-4.35 882.36-5.1L882.36-5.1 883.41-1.25Q881.61-0.45 879.36 0.08 877.11 0.6 874.31 0.6ZM866.71-14.8L866.71-14.8 880.96-14.8Q880.96-18.6 879.06-20.65 877.16-22.7 873.81-22.7L873.81-22.7Q870.91-22.7 869.01-20.68 867.11-18.65 866.71-14.8ZM895.61 0L891.11 0 891.11-26 895.46-26 895.46-21.65Q896.86-23.75 899.03-25.18 901.21-26.6 904.21-26.6L904.21-26.6Q908.61-26.6 910.78-23.95 912.96-21.3 912.96-16.95L912.96-16.95 912.96 0 908.46 0 908.46-16.45Q908.46-19.25 907.13-20.95 905.81-22.65 903.46-22.65L903.46-22.65Q901.16-22.65 899.11-21.03 897.06-19.4 895.61-17.2L895.61-17.2 895.61 0ZM929.81 0.6L929.81 0.6Q926.06 0.6 923.88-1.88 921.71-4.35 921.71-8.95L921.71-8.95 921.71-21.15 917.21-21.15 917.21-25.05 921.81-25.05 922.76-33.25 926.21-33.25 926.21-25.05 933.41-25.05 933.41-21.15 926.21-21.15 926.21-8.6Q926.21-5.7 927.43-4.55 928.66-3.4 930.36-3.4L930.36-3.4Q931.61-3.4 932.73-3.8 933.86-4.2 934.81-4.75L934.81-4.75 936.06-1.15Q935.06-0.55 933.36 0.03 931.66 0.6 929.81 0.6ZM948.05 0.6L948.05 0.6Q945.1 0.6 942.73-0.15 940.35-0.9 938.8-2.1L938.8-2.1 940.7-5.85Q942-4.75 943.98-4.03 945.95-3.3 948.2-3.3L948.2-3.3Q951-3.3 952.43-4.23 953.85-5.15 953.85-6.6L953.85-6.6Q953.85-7.65 953.33-8.45 952.8-9.25 951.4-10.03 950-10.8 947.35-11.7L947.35-11.7Q943.7-12.95 941.88-14.68 940.05-16.4 940.05-19.45L940.05-19.45Q940.05-22.45 942.68-24.53 945.3-26.6 949.95-26.6L949.95-26.6Q952.45-26.6 954.4-26.08 956.35-25.55 957.9-24.75L957.9-24.75 956.65-21.05Q955.3-21.85 953.58-22.35 951.85-22.85 949.75-22.85L949.75-22.85Q947.15-22.85 945.8-21.8 944.45-20.75 944.45-19.5L944.45-19.5Q944.45-18.3 945.5-17.45 946.55-16.6 949.6-15.6L949.6-15.6Q954.55-13.95 956.5-11.95 958.45-9.95 958.45-6.95L958.45-6.95Q958.45-3.45 955.63-1.43 952.8 0.6 948.05 0.6ZM967.95 0.6L967.95 0.6Q966.6 0.6 965.6-0.4 964.6-1.4 964.6-2.75L964.6-2.75Q964.6-4.3 965.5-5.2 966.4-6.1 967.95-6.1L967.95-6.1Q969.25-6.1 970.28-5.1 971.3-4.1 971.3-2.75L971.3-2.75Q971.3-1.25 970.35-0.33 969.4 0.6 967.95 0.6Z" opacity="1" transform="matrix(1,0,0,1,0,0)" fill="black" class="slogan-text-1" id="SvgjsPath1374" stroke-width="5" stroke="black" stroke-linejoin="round"></path></svg></g></svg></g></svg></g></svg></g><g></g></svg></g></svg></g></svg></g></mask><g mask="url(#c8a8d31a-77eb-45b7-a6f1-806e2471fd7f)"><g><path d="M217.222 247.2v0c-20.714 0-39.038-4.962-54.971-14.887-15.934-9.879-28.339-23.992-37.217-42.338-8.877-18.301-13.316-40.085-13.316-65.351v0c0-24.356 4.507-45.935 13.521-64.736 8.968-18.756 21.715-33.415 38.241-43.977 16.48-10.607 35.76-15.911 57.839-15.911v0c11.381 0 21.738 1.07 31.071 3.21 9.333 2.185 18.096 5.213 26.29 9.082v0l-9.901 27.315c-7.056-3.414-14.272-6.146-21.647-8.195-7.421-2.049-16.139-3.073-26.154-3.073v0c-14.568 0-27.588 3.756-39.061 11.268-11.518 7.512-20.577 18.324-27.178 32.436-6.601 14.113-9.902 31.185-9.902 51.216v0c0 19.12 3.255 35.851 9.765 50.191 6.465 14.34 15.456 25.494 26.974 33.46 11.472 7.967 24.606 11.95 39.402 11.951v0c11.154 0 20.828-1.366 29.022-4.097 8.194-2.731 16.161-6.26 23.9-10.585v0l9.902 26.973c-8.422 4.552-18.028 8.354-28.817 11.404-10.835 3.096-23.423 4.644-37.763 4.644z" fill="#ffffff" fill-rule="nonzero" stroke="none" stroke-width="1" stroke-linecap="butt" stroke-linejoin="miter" stroke-miterlimit="10" stroke-dasharray="" stroke-dashoffset="0" font-family="none" font-weight="none" font-size="none" text-anchor="none" style="mix-blend-mode: normal" data-fill-palette-color="tertiary"></path></g></g><g transform="matrix(1,0,0,1,0,75.37053712262806)"><svg viewBox="0 0 395.52 96.45892575474386" height="96.45892575474386" width="395.52"><g><svg viewBox="0 0 395.52 96.45892575474386" height="96.45892575474386" width="395.52"><g><svg viewBox="0 0 395.52 96.45892575474386" height="96.45892575474386" width="395.52"><g><svg viewBox="0 0 395.52 96.45892575474386" height="96.45892575474386" width="395.52"><g id="textblocktransform"><svg viewBox="0 0 395.52 96.45892575474386" height="96.45892575474386" width="395.52" id="textblock"><g><svg viewBox="0 0 395.52 70.12883399623193" height="70.12883399623193" width="395.52"><g transform="matrix(1,0,0,1,0,0)"><svg width="395.52" viewBox="-0.5 -39.75 239.83 43.35" height="70.12883399623193" data-palette-color="#ffffff"><path d="M17.95 0.6L17.95 0.6Q13.4 0.6 9.9-1.58 6.4-3.75 4.45-7.78 2.5-11.8 2.5-17.35L2.5-17.35Q2.5-22.7 4.48-26.83 6.45-30.95 10.08-33.27 13.7-35.6 18.55-35.6L18.55-35.6Q21.05-35.6 23.1-35.13 25.15-34.65 26.95-33.8L26.95-33.8 25.5-29.8Q23.95-30.55 22.33-31 20.7-31.45 18.5-31.45L18.5-31.45Q15.3-31.45 12.78-29.8 10.25-28.15 8.8-25.05 7.35-21.95 7.35-17.55L7.35-17.55Q7.35-13.35 8.78-10.2 10.2-7.05 12.73-5.3 15.25-3.55 18.5-3.55L18.5-3.55Q20.95-3.55 22.75-4.15 24.55-4.75 26.25-5.7L26.25-5.7 27.7-1.75Q25.85-0.75 23.48-0.08 21.1 0.6 17.95 0.6ZM43.15 0.6L43.15 0.6Q39.45 0.6 36.5-1.13 33.55-2.85 31.87-5.93 30.2-9 30.2-13L30.2-13Q30.2-17.2 31.9-20.25 33.6-23.3 36.55-24.95 39.5-26.6 43.15-26.6L43.15-26.6Q46.8-26.6 49.72-24.95 52.65-23.3 54.37-20.28 56.1-17.25 56.1-13.1L56.1-13.1Q56.1-8.95 54.4-5.88 52.7-2.8 49.77-1.1 46.85 0.6 43.15 0.6ZM43.15-3.4L43.15-3.4Q47.1-3.4 49.3-6.08 51.5-8.75 51.5-13L51.5-13Q51.5-15.6 50.4-17.78 49.3-19.95 47.42-21.28 45.55-22.6 43.15-22.6L43.15-22.6Q39.2-22.6 37-20 34.8-17.4 34.8-13.1L34.8-13.1Q34.8-10.5 35.9-8.28 37-6.05 38.87-4.73 40.75-3.4 43.15-3.4ZM66.59 0L62.1 0 62.1-26 66.59-26 66.59 0ZM64.34-30.45L64.34-30.45Q63.05-30.45 62.12-31.4 61.2-32.35 61.2-33.6L61.2-33.6Q61.2-35.05 62.05-35.9 62.9-36.75 64.34-36.75L64.34-36.75Q65.65-36.75 66.57-35.83 67.5-34.9 67.5-33.6L67.5-33.6Q67.5-32.2 66.65-31.33 65.8-30.45 64.34-30.45ZM79.09 0L74.59 0 74.59-26 78.94-26 78.94-21.65Q80.34-23.75 82.52-25.18 84.69-26.6 87.69-26.6L87.69-26.6Q92.09-26.6 94.27-23.95 96.44-21.3 96.44-16.95L96.44-16.95 96.44 0 91.94 0 91.94-16.45Q91.94-19.25 90.62-20.95 89.29-22.65 86.94-22.65L86.94-22.65Q84.64-22.65 82.59-21.03 80.54-19.4 79.09-17.2L79.09-17.2 79.09 0ZM118.89 0L113.54 0 100.69-33.75 105.34-35.55 116.34-5.2 127.39-35.4 131.69-33.75 118.89 0ZM140.69 0L136.19 0 136.19-26 140.69-26 140.69 0ZM138.44-30.45L138.44-30.45Q137.14-30.45 136.21-31.4 135.29-32.35 135.29-33.6L135.29-33.6Q135.29-35.05 136.14-35.9 136.99-36.75 138.44-36.75L138.44-36.75Q139.74-36.75 140.66-35.83 141.59-34.9 141.59-33.6L141.59-33.6Q141.59-32.2 140.74-31.33 139.89-30.45 138.44-30.45ZM155.69 0.6L155.69 0.6Q152.74 0.6 150.36-0.15 147.99-0.9 146.44-2.1L146.44-2.1 148.34-5.85Q149.63-4.75 151.61-4.03 153.59-3.3 155.84-3.3L155.84-3.3Q158.63-3.3 160.06-4.23 161.49-5.15 161.49-6.6L161.49-6.6Q161.49-7.65 160.96-8.45 160.44-9.25 159.03-10.03 157.63-10.8 154.99-11.7L154.99-11.7Q151.34-12.95 149.51-14.68 147.69-16.4 147.69-19.45L147.69-19.45Q147.69-22.45 150.31-24.53 152.94-26.6 157.59-26.6L157.59-26.6Q160.09-26.6 162.03-26.08 163.99-25.55 165.53-24.75L165.53-24.75 164.28-21.05Q162.94-21.85 161.21-22.35 159.49-22.85 157.38-22.85L157.38-22.85Q154.78-22.85 153.44-21.8 152.09-20.75 152.09-19.5L152.09-19.5Q152.09-18.3 153.13-17.45 154.19-16.6 157.24-15.6L157.24-15.6Q162.19-13.95 164.13-11.95 166.09-9.95 166.09-6.95L166.09-6.95Q166.09-3.45 163.26-1.43 160.44 0.6 155.69 0.6ZM176.58 0L172.08 0 172.08-26 176.58-26 176.58 0ZM174.33-30.45L174.33-30.45Q173.03-30.45 172.11-31.4 171.18-32.35 171.18-33.6L171.18-33.6Q171.18-35.05 172.03-35.9 172.88-36.75 174.33-36.75L174.33-36.75Q175.63-36.75 176.56-35.83 177.48-34.9 177.48-33.6L177.48-33.6Q177.48-32.2 176.63-31.33 175.78-30.45 174.33-30.45ZM195.53 0.6L195.53 0.6Q191.83 0.6 188.88-1.13 185.93-2.85 184.26-5.93 182.58-9 182.58-13L182.58-13Q182.58-17.2 184.28-20.25 185.98-23.3 188.93-24.95 191.88-26.6 195.53-26.6L195.53-26.6Q199.18-26.6 202.11-24.95 205.03-23.3 206.76-20.28 208.48-17.25 208.48-13.1L208.48-13.1Q208.48-8.95 206.78-5.88 205.08-2.8 202.16-1.1 199.23 0.6 195.53 0.6ZM195.53-3.4L195.53-3.4Q199.48-3.4 201.68-6.08 203.88-8.75 203.88-13L203.88-13Q203.88-15.6 202.78-17.78 201.68-19.95 199.81-21.28 197.93-22.6 195.53-22.6L195.53-22.6Q191.58-22.6 189.38-20 187.18-17.4 187.18-13.1L187.18-13.1Q187.18-10.5 188.28-8.28 189.38-6.05 191.26-4.73 193.13-3.4 195.53-3.4ZM218.98 0L214.48 0 214.48-26 218.83-26 218.83-21.65Q220.23-23.75 222.4-25.18 224.58-26.6 227.58-26.6L227.58-26.6Q231.98-26.6 234.15-23.95 236.33-21.3 236.33-16.95L236.33-16.95 236.33 0 231.83 0 231.83-16.45Q231.83-19.25 230.5-20.95 229.18-22.65 226.83-22.65L226.83-22.65Q224.53-22.65 222.48-21.03 220.43-19.4 218.98-17.2L218.98-17.2 218.98 0Z" opacity="1" transform="matrix(1,0,0,1,0,0)" fill="#ffffff" class="wordmark-text-0" data-fill-palette-color="primary" id="text-0"></path></svg></g></svg></g><g transform="matrix(1,0,0,1,2.5,79.15411090193844)"><svg viewBox="0 0 390.52 17.304814852805414" height="17.304814852805414" width="390.52"><g transform="matrix(1,0,0,1,0,0)"><svg width="390.52" viewBox="-1.5 -40.6 975.8 44.2" height="17.304814852805414" data-palette-color="#ffffff"><path d="M13.2 0.6L13.2 0.6Q9.55 0.6 6.55-0.38 3.55-1.35 1.5-2.95L1.5-2.95 3.9-6.95Q5.7-5.45 7.95-4.5 10.2-3.55 13.2-3.55L13.2-3.55Q16.8-3.55 18.9-5.05 21-6.55 21-9.1L21-9.1Q21-10.55 20.4-11.68 19.8-12.8 18.07-13.88 16.35-14.95 13-16.2L13-16.2Q9.4-17.6 7.25-19.03 5.1-20.45 4.17-22.28 3.25-24.1 3.25-26.6L3.25-26.6Q3.25-29.1 4.63-31.13 6-33.15 8.68-34.38 11.35-35.6 15.15-35.6L15.15-35.6Q18.25-35.6 20.73-34.98 23.2-34.35 25.55-33.2L25.55-33.2 23.8-29.15Q22.1-30.15 19.83-30.83 17.55-31.5 15.05-31.5L15.05-31.5Q11.75-31.5 9.85-30.2 7.95-28.9 7.95-26.85L7.95-26.85Q7.95-25.55 8.5-24.55 9.05-23.55 10.68-22.6 12.3-21.65 15.55-20.45L15.55-20.45Q19.45-19 21.73-17.4 24-15.8 24.95-13.93 25.9-12.05 25.9-9.65L25.9-9.65Q25.9-6.4 24.28-4.1 22.65-1.8 19.78-0.6 16.9 0.6 13.2 0.6ZM36.9 0L32.4 0 32.4-26 36.75-26 36.75-21.65Q38.15-23.75 40.3-25.18 42.45-26.6 45.2-26.6L45.2-26.6Q48.3-26.6 50.27-25.1 52.25-23.6 53.05-21.1L53.05-21.1Q54.6-23.4 56.72-25 58.85-26.6 62-26.6L62-26.6Q66.25-26.6 68.32-23.93 70.4-21.25 70.4-16.95L70.4-16.95 70.4 0 65.9 0 65.9-16.6Q65.9-19.3 64.65-20.98 63.4-22.65 61.2-22.65L61.2-22.65Q58.95-22.65 57.02-20.98 55.1-19.3 53.65-17.05L53.65-17.05 53.65 0 49.15 0 49.15-16.6Q49.15-19.3 47.9-20.98 46.65-22.65 44.45-22.65L44.45-22.65Q42.25-22.65 40.3-21.03 38.35-19.4 36.9-17.2L36.9-17.2 36.9 0ZM88.1 0.6L88.1 0.6Q84.85 0.6 82.2-1.05 79.55-2.7 77.97-5.73 76.4-8.75 76.4-12.85L76.4-12.85Q76.4-16.75 77.97-19.85 79.55-22.95 82.32-24.78 85.1-26.6 88.7-26.6L88.7-26.6Q90.95-26.6 92.77-25.83 94.6-25.05 95.95-23.9L95.95-23.9 95.95-26 100.05-26 100.05-6.3Q100.05-4.4 100.97-3.83 101.9-3.25 103-3.25L103-3.25 102.05 0.25Q97.25 0.25 96.25-3.65L96.25-3.65Q95.1-2.05 93.12-0.73 91.15 0.6 88.1 0.6ZM89.1-3.4L89.1-3.4Q91-3.4 92.7-4.33 94.4-5.25 95.55-6.65L95.55-6.65 95.55-20.6Q94.2-21.55 92.57-22.13 90.95-22.7 89.15-22.7L89.15-22.7Q86.75-22.7 84.92-21.48 83.1-20.25 82.05-18.07 81-15.9 81-13L81-13Q81-10.2 82.05-8.03 83.1-5.85 84.95-4.63 86.8-3.4 89.1-3.4ZM113.49 0L108.99 0 108.99-26 113.34-26 113.34-20.35Q113.99-22 115.09-23.43 116.19-24.85 117.84-25.73 119.49-26.6 121.69-26.6L121.69-26.6Q122.44-26.6 123.19-26.53 123.94-26.45 124.44-26.3L124.44-26.3 123.09-21.65Q122.14-22.05 120.84-22.05L120.84-22.05Q118.99-22.05 117.32-21 115.64-19.95 114.57-17.75 113.49-15.55 113.49-12.15L113.49-12.15 113.49 0ZM139.04 0.6L139.04 0.6Q135.29 0.6 133.12-1.88 130.94-4.35 130.94-8.95L130.94-8.95 130.94-21.15 126.44-21.15 126.44-25.05 131.04-25.05 131.99-33.25 135.44-33.25 135.44-25.05 142.64-25.05 142.64-21.15 135.44-21.15 135.44-8.6Q135.44-5.7 136.67-4.55 137.89-3.4 139.59-3.4L139.59-3.4Q140.84-3.4 141.97-3.8 143.09-4.2 144.04-4.75L144.04-4.75 145.29-1.15Q144.29-0.55 142.59 0.03 140.89 0.6 139.04 0.6ZM170.04 0L165.29 0 165.29-34.9Q167.34-35.15 169.81-35.27 172.29-35.4 174.94-35.4L174.94-35.4Q179.29-35.4 182.34-34.02 185.39-32.65 186.99-30.25 188.59-27.85 188.59-24.75L188.59-24.75Q188.59-21 186.74-18.4 184.89-15.8 181.59-14.43 178.29-13.05 173.94-13.05L173.94-13.05Q171.84-13.05 170.04-13.2L170.04-13.2 170.04 0ZM174.54-17L174.54-17Q178.99-17 181.44-19 183.89-21 183.89-24.35L183.89-24.35Q183.89-27.6 181.54-29.5 179.19-31.4 174.84-31.4L174.84-31.4Q173.49-31.4 172.29-31.35 171.09-31.3 170.04-31.2L170.04-31.2 170.04-17.25Q170.84-17.15 171.99-17.07 173.14-17 174.54-17ZM198.33 0L193.83 0 193.83-26 198.18-26 198.18-20.35Q198.83-22 199.93-23.43 201.03-24.85 202.68-25.73 204.33-26.6 206.53-26.6L206.53-26.6Q207.28-26.6 208.03-26.53 208.78-26.45 209.28-26.3L209.28-26.3 207.93-21.65Q206.98-22.05 205.68-22.05L205.68-22.05Q203.83-22.05 202.16-21 200.48-19.95 199.41-17.75 198.33-15.55 198.33-12.15L198.33-12.15 198.33 0ZM222.68 0.6L222.68 0.6Q217.08 0.6 213.81-2.98 210.53-6.55 210.53-13L210.53-13Q210.53-16.9 212.01-19.98 213.48-23.05 216.13-24.83 218.78-26.6 222.28-26.6L222.28-26.6Q226.03-26.6 228.51-24.98 230.98-23.35 232.23-20.6 233.48-17.85 233.48-14.55L233.48-14.55Q233.48-12.8 233.33-11.15L233.33-11.15 215.13-11.15Q215.58-7.5 217.68-5.45 219.78-3.4 223.23-3.4L223.23-3.4Q225.48-3.4 227.28-3.88 229.08-4.35 230.73-5.1L230.73-5.1 231.78-1.25Q229.98-0.45 227.73 0.08 225.48 0.6 222.68 0.6ZM215.08-14.8L215.08-14.8 229.33-14.8Q229.33-18.6 227.43-20.65 225.53-22.7 222.18-22.7L222.18-22.7Q219.28-22.7 217.38-20.68 215.48-18.65 215.08-14.8ZM249.33 0.6L249.33 0.6Q246.13 0.6 243.48-1.05 240.83-2.7 239.28-5.73 237.73-8.75 237.73-12.85L237.73-12.85Q237.73-16.8 239.3-19.9 240.88-23 243.5-24.8 246.13-26.6 249.28-26.6L249.28-26.6Q251.88-26.6 253.75-25.55 255.63-24.5 256.68-23.4L256.68-23.4 256.68-37 261.18-37 261.18-6.3Q261.18-4.4 262.1-3.83 263.03-3.25 264.13-3.25L264.13-3.25 263.18 0.25Q258.43 0.25 257.38-3.55L257.38-3.55Q256.28-2 254.3-0.7 252.33 0.6 249.33 0.6ZM250.33-3.4L250.33-3.4Q252.18-3.4 253.85-4.28 255.53-5.15 256.68-6.55L256.68-6.55 256.68-19.45Q255.73-20.65 254.03-21.68 252.33-22.7 250.28-22.7L250.28-22.7Q247.88-22.7 246.08-21.4 244.28-20.1 243.3-17.93 242.33-15.75 242.33-13L242.33-13Q242.33-10.25 243.38-8.08 244.43-5.9 246.25-4.65 248.08-3.4 250.33-3.4ZM274.63 0L270.13 0 270.13-26 274.63-26 274.63 0ZM272.38-30.45L272.38-30.45Q271.07-30.45 270.15-31.4 269.23-32.35 269.23-33.6L269.23-33.6Q269.23-35.05 270.07-35.9 270.93-36.75 272.38-36.75L272.38-36.75Q273.68-36.75 274.6-35.83 275.52-34.9 275.52-33.6L275.52-33.6Q275.52-32.2 274.68-31.33 273.82-30.45 272.38-30.45ZM293.12 0.6L293.12 0.6Q289.42 0.6 286.65-1.13 283.87-2.85 282.37-5.93 280.87-9 280.87-13L280.87-13Q280.87-16.75 282.4-19.85 283.92-22.95 286.77-24.78 289.62-26.6 293.47-26.6L293.47-26.6Q295.67-26.6 297.35-26.2 299.02-25.8 300.57-25.05L300.57-25.05 299.22-21.25Q297.82-21.95 296.55-22.28 295.27-22.6 293.72-22.6L293.72-22.6Q290.22-22.6 287.85-20.08 285.47-17.55 285.47-13.1L285.47-13.1Q285.47-10.4 286.47-8.2 287.47-6 289.25-4.7 291.02-3.4 293.42-3.4L293.42-3.4Q295.32-3.4 296.67-3.83 298.02-4.25 299.57-5.05L299.57-5.05 300.97-1.25Q299.42-0.4 297.5 0.1 295.57 0.6 293.12 0.6ZM315.32 0.6L315.32 0.6Q311.57 0.6 309.4-1.88 307.22-4.35 307.22-8.95L307.22-8.95 307.22-21.15 302.72-21.15 302.72-25.05 307.32-25.05 308.27-33.25 311.72-33.25 311.72-25.05 318.92-25.05 318.92-21.15 311.72-21.15 311.72-8.6Q311.72-5.7 312.95-4.55 314.17-3.4 315.87-3.4L315.87-3.4Q317.12-3.4 318.25-3.8 319.37-4.2 320.32-4.75L320.32-4.75 321.57-1.15Q320.57-0.55 318.87 0.03 317.17 0.6 315.32 0.6ZM330.57 0L326.07 0 326.07-26 330.57-26 330.57 0ZM328.32-30.45L328.32-30.45Q327.02-30.45 326.09-31.4 325.17-32.35 325.17-33.6L325.17-33.6Q325.17-35.05 326.02-35.9 326.87-36.75 328.32-36.75L328.32-36.75Q329.62-36.75 330.54-35.83 331.47-34.9 331.47-33.6L331.47-33.6Q331.47-32.2 330.62-31.33 329.77-30.45 328.32-30.45ZM349.52 0.6L349.52 0.6Q345.82 0.6 342.87-1.13 339.92-2.85 338.24-5.93 336.57-9 336.57-13L336.57-13Q336.57-17.2 338.27-20.25 339.97-23.3 342.92-24.95 345.87-26.6 349.52-26.6L349.52-26.6Q353.17-26.6 356.09-24.95 359.02-23.3 360.74-20.28 362.47-17.25 362.47-13.1L362.47-13.1Q362.47-8.95 360.77-5.88 359.07-2.8 356.14-1.1 353.22 0.6 349.52 0.6ZM349.52-3.4L349.52-3.4Q353.47-3.4 355.67-6.08 357.87-8.75 357.87-13L357.87-13Q357.87-15.6 356.77-17.78 355.67-19.95 353.79-21.28 351.92-22.6 349.52-22.6L349.52-22.6Q345.57-22.6 343.37-20 341.17-17.4 341.17-13.1L341.17-13.1Q341.17-10.5 342.27-8.28 343.37-6.05 345.24-4.73 347.12-3.4 349.52-3.4ZM372.96 0L368.46 0 368.46-26 372.81-26 372.81-21.65Q374.21-23.75 376.39-25.18 378.56-26.6 381.56-26.6L381.56-26.6Q385.96-26.6 388.14-23.95 390.31-21.3 390.31-16.95L390.31-16.95 390.31 0 385.81 0 385.81-16.45Q385.81-19.25 384.49-20.95 383.16-22.65 380.81-22.65L380.81-22.65Q378.51-22.65 376.46-21.03 374.41-19.4 372.96-17.2L372.96-17.2 372.96 0ZM405.06 0.6L405.06 0.6Q402.11 0.6 399.74-0.15 397.36-0.9 395.81-2.1L395.81-2.1 397.71-5.85Q399.01-4.75 400.99-4.03 402.96-3.3 405.21-3.3L405.21-3.3Q408.01-3.3 409.44-4.23 410.86-5.15 410.86-6.6L410.86-6.6Q410.86-7.65 410.34-8.45 409.81-9.25 408.41-10.03 407.01-10.8 404.36-11.7L404.36-11.7Q400.71-12.95 398.89-14.68 397.06-16.4 397.06-19.45L397.06-19.45Q397.06-22.45 399.69-24.53 402.31-26.6 406.96-26.6L406.96-26.6Q409.46-26.6 411.41-26.08 413.36-25.55 414.91-24.75L414.91-24.75 413.66-21.05Q412.31-21.85 410.59-22.35 408.86-22.85 406.76-22.85L406.76-22.85Q404.16-22.85 402.81-21.8 401.46-20.75 401.46-19.5L401.46-19.5Q401.46-18.3 402.51-17.45 403.56-16.6 406.61-15.6L406.61-15.6Q411.56-13.95 413.51-11.95 415.46-9.95 415.46-6.95L415.46-6.95Q415.46-3.45 412.64-1.43 409.81 0.6 405.06 0.6ZM441.46 0L436.96 0 436.96-21.15 432.96-21.15 432.96-25.05 436.96-25.05 436.96-28.1Q436.96-32.5 439.41-35.05 441.86-37.6 445.81-37.6L445.81-37.6Q447.86-37.6 449.41-37.13 450.96-36.65 452.36-35.95L452.36-35.95 451.01-32.15Q449.96-32.7 448.76-33.15 447.56-33.6 446.11-33.6L446.11-33.6Q444.01-33.6 442.73-32.27 441.46-30.95 441.46-28.4L441.46-28.4 441.46-25.05 449.16-25.05 449.16-21.15 441.46-21.15 441.46 0ZM464.05 0.6L464.05 0.6Q460.35 0.6 457.4-1.13 454.45-2.85 452.78-5.93 451.1-9 451.1-13L451.1-13Q451.1-17.2 452.8-20.25 454.5-23.3 457.45-24.95 460.4-26.6 464.05-26.6L464.05-26.6Q467.7-26.6 470.63-24.95 473.55-23.3 475.28-20.28 477-17.25 477-13.1L477-13.1Q477-8.95 475.3-5.88 473.6-2.8 470.68-1.1 467.75 0.6 464.05 0.6ZM464.05-3.4L464.05-3.4Q468-3.4 470.2-6.08 472.4-8.75 472.4-13L472.4-13Q472.4-15.6 471.3-17.78 470.2-19.95 468.33-21.28 466.45-22.6 464.05-22.6L464.05-22.6Q460.1-22.6 457.9-20 455.7-17.4 455.7-13.1L455.7-13.1Q455.7-10.5 456.8-8.28 457.9-6.05 459.78-4.73 461.65-3.4 464.05-3.4ZM487.5 0L483 0 483-26 487.35-26 487.35-20.35Q488-22 489.1-23.43 490.2-24.85 491.85-25.73 493.5-26.6 495.7-26.6L495.7-26.6Q496.45-26.6 497.2-26.53 497.95-26.45 498.45-26.3L498.45-26.3 497.1-21.65Q496.15-22.05 494.85-22.05L494.85-22.05Q493-22.05 491.32-21 489.65-19.95 488.57-17.75 487.5-15.55 487.5-12.15L487.5-12.15 487.5 0ZM527.14 0.6L527.14 0.6Q523.49 0.6 520.49-0.38 517.49-1.35 515.44-2.95L515.44-2.95 517.84-6.95Q519.64-5.45 521.89-4.5 524.14-3.55 527.14-3.55L527.14-3.55Q530.74-3.55 532.84-5.05 534.94-6.55 534.94-9.1L534.94-9.1Q534.94-10.55 534.34-11.68 533.74-12.8 532.02-13.88 530.29-14.95 526.94-16.2L526.94-16.2Q523.34-17.6 521.19-19.03 519.04-20.45 518.12-22.28 517.19-24.1 517.19-26.6L517.19-26.6Q517.19-29.1 518.57-31.13 519.94-33.15 522.62-34.38 525.29-35.6 529.09-35.6L529.09-35.6Q532.19-35.6 534.67-34.98 537.14-34.35 539.49-33.2L539.49-33.2 537.74-29.15Q536.04-30.15 533.77-30.83 531.49-31.5 528.99-31.5L528.99-31.5Q525.69-31.5 523.79-30.2 521.89-28.9 521.89-26.85L521.89-26.85Q521.89-25.55 522.44-24.55 522.99-23.55 524.62-22.6 526.24-21.65 529.49-20.45L529.49-20.45Q533.39-19 535.67-17.4 537.94-15.8 538.89-13.93 539.84-12.05 539.84-9.65L539.84-9.65Q539.84-6.4 538.22-4.1 536.59-1.8 533.72-0.6 530.84 0.6 527.14 0.6ZM550.84 0L546.34 0 546.34-26 550.69-26 550.69-21.65Q552.09-23.75 554.24-25.18 556.39-26.6 559.14-26.6L559.14-26.6Q562.24-26.6 564.22-25.1 566.19-23.6 566.99-21.1L566.99-21.1Q568.54-23.4 570.67-25 572.79-26.6 575.94-26.6L575.94-26.6Q580.19-26.6 582.27-23.93 584.34-21.25 584.34-16.95L584.34-16.95 584.34 0 579.84 0 579.84-16.6Q579.84-19.3 578.59-20.98 577.34-22.65 575.14-22.65L575.14-22.65Q572.89-22.65 570.97-20.98 569.04-19.3 567.59-17.05L567.59-17.05 567.59 0 563.09 0 563.09-16.6Q563.09-19.3 561.84-20.98 560.59-22.65 558.39-22.65L558.39-22.65Q556.19-22.65 554.24-21.03 552.29-19.4 550.84-17.2L550.84-17.2 550.84 0ZM602.04 0.6L602.04 0.6Q598.79 0.6 596.14-1.05 593.49-2.7 591.91-5.73 590.34-8.75 590.34-12.85L590.34-12.85Q590.34-16.75 591.91-19.85 593.49-22.95 596.26-24.78 599.04-26.6 602.64-26.6L602.64-26.6Q604.89-26.6 606.71-25.83 608.54-25.05 609.89-23.9L609.89-23.9 609.89-26 613.99-26 613.99-6.3Q613.99-4.4 614.91-3.83 615.84-3.25 616.94-3.25L616.94-3.25 615.99 0.25Q611.19 0.25 610.19-3.65L610.19-3.65Q609.04-2.05 607.06-0.73 605.09 0.6 602.04 0.6ZM603.04-3.4L603.04-3.4Q604.94-3.4 606.64-4.33 608.34-5.25 609.49-6.65L609.49-6.65 609.49-20.6Q608.14-21.55 606.51-22.13 604.89-22.7 603.09-22.7L603.09-22.7Q600.69-22.7 598.86-21.48 597.04-20.25 595.99-18.07 594.94-15.9 594.94-13L594.94-13Q594.94-10.2 595.99-8.03 597.04-5.85 598.89-4.63 600.74-3.4 603.04-3.4ZM627.44 0L622.94 0 622.94-26 627.29-26 627.29-20.35Q627.94-22 629.04-23.43 630.14-24.85 631.79-25.73 633.44-26.6 635.64-26.6L635.64-26.6Q636.39-26.6 637.14-26.53 637.89-26.45 638.39-26.3L638.39-26.3 637.04-21.65Q636.09-22.05 634.79-22.05L634.79-22.05Q632.94-22.05 631.26-21 629.59-19.95 628.51-17.75 627.44-15.55 627.44-12.15L627.44-12.15 627.44 0ZM652.98 0.6L652.98 0.6Q649.23 0.6 647.06-1.88 644.88-4.35 644.88-8.95L644.88-8.95 644.88-21.15 640.38-21.15 640.38-25.05 644.98-25.05 645.93-33.25 649.38-33.25 649.38-25.05 656.58-25.05 656.58-21.15 649.38-21.15 649.38-8.6Q649.38-5.7 650.61-4.55 651.83-3.4 653.53-3.4L653.53-3.4Q654.78-3.4 655.91-3.8 657.03-4.2 657.98-4.75L657.98-4.75 659.23-1.15Q658.23-0.55 656.53 0.03 654.83 0.6 652.98 0.6ZM683.98 0L679.23 0 679.23-35 683.98-35 683.98 0ZM696.98 0L692.48 0 692.48-26 696.83-26 696.83-21.65Q698.23-23.75 700.4-25.18 702.58-26.6 705.58-26.6L705.58-26.6Q709.98-26.6 712.15-23.95 714.33-21.3 714.33-16.95L714.33-16.95 714.33 0 709.83 0 709.83-16.45Q709.83-19.25 708.5-20.95 707.18-22.65 704.83-22.65L704.83-22.65Q702.53-22.65 700.48-21.03 698.43-19.4 696.98-17.2L696.98-17.2 696.98 0ZM733.72 0L729.02 0 718.57-24.8 722.67-26.5 731.52-5.1 740.37-26.5 744.22-24.8 733.72 0ZM758.12 0.6L758.12 0.6Q752.52 0.6 749.25-2.98 745.97-6.55 745.97-13L745.97-13Q745.97-16.9 747.45-19.98 748.92-23.05 751.57-24.83 754.22-26.6 757.72-26.6L757.72-26.6Q761.47-26.6 763.95-24.98 766.42-23.35 767.67-20.6 768.92-17.85 768.92-14.55L768.92-14.55Q768.92-12.8 768.77-11.15L768.77-11.15 750.57-11.15Q751.02-7.5 753.12-5.45 755.22-3.4 758.67-3.4L758.67-3.4Q760.92-3.4 762.72-3.88 764.52-4.35 766.17-5.1L766.17-5.1 767.22-1.25Q765.42-0.45 763.17 0.08 760.92 0.6 758.12 0.6ZM750.52-14.8L750.52-14.8 764.77-14.8Q764.77-18.6 762.87-20.65 760.97-22.7 757.62-22.7L757.62-22.7Q754.72-22.7 752.82-20.68 750.92-18.65 750.52-14.8ZM781.92 0.6L781.92 0.6Q778.97 0.6 776.59-0.15 774.22-0.9 772.67-2.1L772.67-2.1 774.57-5.85Q775.87-4.75 777.84-4.03 779.82-3.3 782.07-3.3L782.07-3.3Q784.87-3.3 786.29-4.23 787.72-5.15 787.72-6.6L787.72-6.6Q787.72-7.65 787.19-8.45 786.67-9.25 785.27-10.03 783.87-10.8 781.22-11.7L781.22-11.7Q777.57-12.95 775.74-14.68 773.92-16.4 773.92-19.45L773.92-19.45Q773.92-22.45 776.54-24.53 779.17-26.6 783.82-26.6L783.82-26.6Q786.32-26.6 788.27-26.08 790.22-25.55 791.77-24.75L791.77-24.75 790.52-21.05Q789.17-21.85 787.44-22.35 785.72-22.85 783.62-22.85L783.62-22.85Q781.02-22.85 779.67-21.8 778.32-20.75 778.32-19.5L778.32-19.5Q778.32-18.3 779.37-17.45 780.42-16.6 783.47-15.6L783.47-15.6Q788.42-13.95 790.37-11.95 792.32-9.95 792.32-6.95L792.32-6.95Q792.32-3.45 789.49-1.43 786.67 0.6 781.92 0.6ZM807.42 0.6L807.42 0.6Q803.67 0.6 801.49-1.88 799.32-4.35 799.32-8.95L799.32-8.95 799.32-21.15 794.82-21.15 794.82-25.05 799.42-25.05 800.37-33.25 803.82-33.25 803.82-25.05 811.02-25.05 811.02-21.15 803.82-21.15 803.82-8.6Q803.82-5.7 805.04-4.55 806.27-3.4 807.97-3.4L807.97-3.4Q809.22-3.4 810.34-3.8 811.47-4.2 812.42-4.75L812.42-4.75 813.67-1.15Q812.67-0.55 810.97 0.03 809.27 0.6 807.42 0.6ZM822.66 0L818.16 0 818.16-26 822.51-26 822.51-21.65Q823.91-23.75 826.06-25.18 828.21-26.6 830.96-26.6L830.96-26.6Q834.06-26.6 836.04-25.1 838.01-23.6 838.81-21.1L838.81-21.1Q840.36-23.4 842.49-25 844.61-26.6 847.76-26.6L847.76-26.6Q852.01-26.6 854.09-23.93 856.16-21.25 856.16-16.95L856.16-16.95 856.16 0 851.66 0 851.66-16.6Q851.66-19.3 850.41-20.98 849.16-22.65 846.96-22.65L846.96-22.65Q844.71-22.65 842.79-20.98 840.86-19.3 839.41-17.05L839.41-17.05 839.41 0 834.91 0 834.91-16.6Q834.91-19.3 833.66-20.98 832.41-22.65 830.21-22.65L830.21-22.65Q828.01-22.65 826.06-21.03 824.11-19.4 822.66-17.2L822.66-17.2 822.66 0ZM874.31 0.6L874.31 0.6Q868.71 0.6 865.44-2.98 862.16-6.55 862.16-13L862.16-13Q862.16-16.9 863.64-19.98 865.11-23.05 867.76-24.83 870.41-26.6 873.91-26.6L873.91-26.6Q877.66-26.6 880.14-24.98 882.61-23.35 883.86-20.6 885.11-17.85 885.11-14.55L885.11-14.55Q885.11-12.8 884.96-11.15L884.96-11.15 866.76-11.15Q867.21-7.5 869.31-5.45 871.41-3.4 874.86-3.4L874.86-3.4Q877.11-3.4 878.91-3.88 880.71-4.35 882.36-5.1L882.36-5.1 883.41-1.25Q881.61-0.45 879.36 0.08 877.11 0.6 874.31 0.6ZM866.71-14.8L866.71-14.8 880.96-14.8Q880.96-18.6 879.06-20.65 877.16-22.7 873.81-22.7L873.81-22.7Q870.91-22.7 869.01-20.68 867.11-18.65 866.71-14.8ZM895.61 0L891.11 0 891.11-26 895.46-26 895.46-21.65Q896.86-23.75 899.03-25.18 901.21-26.6 904.21-26.6L904.21-26.6Q908.61-26.6 910.78-23.95 912.96-21.3 912.96-16.95L912.96-16.95 912.96 0 908.46 0 908.46-16.45Q908.46-19.25 907.13-20.95 905.81-22.65 903.46-22.65L903.46-22.65Q901.16-22.65 899.11-21.03 897.06-19.4 895.61-17.2L895.61-17.2 895.61 0ZM929.81 0.6L929.81 0.6Q926.06 0.6 923.88-1.88 921.71-4.35 921.71-8.95L921.71-8.95 921.71-21.15 917.21-21.15 917.21-25.05 921.81-25.05 922.76-33.25 926.21-33.25 926.21-25.05 933.41-25.05 933.41-21.15 926.21-21.15 926.21-8.6Q926.21-5.7 927.43-4.55 928.66-3.4 930.36-3.4L930.36-3.4Q931.61-3.4 932.73-3.8 933.86-4.2 934.81-4.75L934.81-4.75 936.06-1.15Q935.06-0.55 933.36 0.03 931.66 0.6 929.81 0.6ZM948.05 0.6L948.05 0.6Q945.1 0.6 942.73-0.15 940.35-0.9 938.8-2.1L938.8-2.1 940.7-5.85Q942-4.75 943.98-4.03 945.95-3.3 948.2-3.3L948.2-3.3Q951-3.3 952.43-4.23 953.85-5.15 953.85-6.6L953.85-6.6Q953.85-7.65 953.33-8.45 952.8-9.25 951.4-10.03 950-10.8 947.35-11.7L947.35-11.7Q943.7-12.95 941.88-14.68 940.05-16.4 940.05-19.45L940.05-19.45Q940.05-22.45 942.68-24.53 945.3-26.6 949.95-26.6L949.95-26.6Q952.45-26.6 954.4-26.08 956.35-25.55 957.9-24.75L957.9-24.75 956.65-21.05Q955.3-21.85 953.58-22.35 951.85-22.85 949.75-22.85L949.75-22.85Q947.15-22.85 945.8-21.8 944.45-20.75 944.45-19.5L944.45-19.5Q944.45-18.3 945.5-17.45 946.55-16.6 949.6-15.6L949.6-15.6Q954.55-13.95 956.5-11.95 958.45-9.95 958.45-6.95L958.45-6.95Q958.45-3.45 955.63-1.43 952.8 0.6 948.05 0.6ZM967.95 0.6L967.95 0.6Q966.6 0.6 965.6-0.4 964.6-1.4 964.6-2.75L964.6-2.75Q964.6-4.3 965.5-5.2 966.4-6.1 967.95-6.1L967.95-6.1Q969.25-6.1 970.28-5.1 971.3-4.1 971.3-2.75L971.3-2.75Q971.3-1.25 970.35-0.33 969.4 0.6 967.95 0.6Z" opacity="1" transform="matrix(1,0,0,1,0,0)" fill="#ffffff" class="slogan-text-1" data-fill-palette-color="secondary" id="text-1"></path></svg></g></svg></g></svg></g></svg></g><g></g></svg></g></svg></g></svg></g></svg></g><defs></defs></svg><rect width="395.52" height="247.2" fill="none" stroke="none" visibility="hidden"></rect></g></svg></g></svg>